<?xml version="1.0" encoding="UTF-8" standalone="no"?>
<svg
   version="1.1"
   id="Layer_1"
   x="0px"
   y="0px"
   width="1024"
   viewBox="0 0 1024 1024"
   enable-background="new 0 0 1254 1254"
   xml:space="preserve"
   height="1024"
   xmlns="http://www.w3.org/2000/svg"
   xmlns:svg="http://www.w3.org/2000/svg"><defs
   id="defs39" />

<g
   id="layer1"><rect
     style="fill:#ffffff;stroke-width:0.944041"
     id="rect1"
     width="1024"
     height="1024"
     x="0"
     y="0" /></g><g
   id="layer2"
   transform="translate(-18,-10)"><path
     fill="#2a2937"
     opacity="1"
     stroke="none"
     d="m 259.39608,533.39729 c 53.79617,0 107.09958,0 160.72918,0 0.27942,8.22168 5.00952,14.32513 9.39124,20.39086 6.77508,9.37903 14.20807,18.27967 21.19366,27.51062 7.71436,10.19391 15.21888,20.54645 22.85346,30.80109 5.04388,6.77484 9.92749,13.68665 15.28369,20.20789 12.3017,14.97747 44.61572,15.48657 56.99756,-0.84876 7.01648,-9.25677 14.33594,-18.28479 21.30731,-27.57477 8.50757,-11.33709 16.73444,-22.88446 25.19647,-34.25622 5.14411,-6.9129 10.83789,-13.44019 15.64459,-20.57215 3.08808,-4.58197 5.01246,-9.9483 7.69196,-15.44171 57.09955,0 115.18091,0 173.66791,0 0,1.83356 0,3.45673 0,5.0799 0,62.48413 -0.0334,124.96826 0.0755,187.45221 0.007,4.14587 -1.24378,7.16821 -4.2143,9.97894 -5.80664,5.49463 -11.06573,11.60046 -17.13037,16.77496 -2.73822,2.33637 -6.86084,4.31116 -10.35821,4.31568 -160.62555,0.20898 -321.25147,0.17444 -481.87732,0.21667 -4.6229,10e-4 -7.66269,-2.11804 -10.7045,-5.42279 -4.73193,-5.14099 -10.05795,-9.74151 -15.20523,-14.49194 -3.99869,-3.69043 -5.71387,-7.94464 -5.69742,-13.59705 0.17883,-61.48388 0.11127,-122.96844 0.11267,-184.45282 1.5e-4,-6.37732 0.004,-6.34234 6.55243,-6.08825 2.6619,0.10333 5.33112,0.0175 8.48972,0.0176 z"
     id="path2" /><path
     fill="#2a2937"
     opacity="1"
     stroke="none"
     d="m 778.96712,781.27778 c 8.44751,-8.41638 16.59668,-16.60242 24.7771,-24.75708 2.74298,-2.73432 5.22327,-5.93042 8.42951,-7.95685 5.17846,-3.27289 6.28344,-7.63031 6.27087,-13.36261 -0.14386,-65.49664 -0.0346,-130.99383 -0.20374,-196.49036 -0.013,-5.03357 1.25745,-6.49591 6.37214,-6.43475 23.16223,0.27698 46.32989,0.17072 69.49523,0.0955 8.61036,-0.0279 8.06568,1.75287 9.13172,8.7641 0.6192,4.07226 0.11316,8.31579 0.11316,12.48224 6e-5,62.33044 0.0228,124.66089 -0.0684,186.99115 -0.004,3.06848 0.83038,5.19525 3.02466,7.34948 4.47332,4.39167 8.90325,8.90442 12.72174,13.85285 1.84253,2.38763 3.15527,5.86731 3.182,8.86615 0.24024,26.82989 0.0178,53.66388 0.22864,80.49432 0.0507,6.45215 -3.97998,10.36237 -10.38678,10.35858 -263.15436,-0.1557 -526.30875,-0.13305 -789.46315,-0.13378 -7.86214,-7e-5 -10.23755,-2.38428 -10.23805,-10.27283 -0.002,-25.99878 0.25311,-52.00183 -0.18163,-77.99329 -0.10675,-6.3811 1.97664,-10.93609 6.12319,-15.20611 3.67462,-3.78424 7.44447,-7.54108 10.59056,-11.7453 1.51382,-2.02295 2.36352,-5.04786 2.36839,-7.62122 0.12517,-66.16333 0.14754,-132.32709 0.0272,-198.49048 -0.0127,-6.98767 1.43199,-7.77838 7.52742,-7.73645 23.66443,0.16284 47.33154,0.172 70.99542,-0.0288 4.38754,-0.0373 5.65015,1.1991 5.64117,5.61896 -0.13363,65.83002 -0.01,131.66065 -0.22372,197.49024 -0.0206,6.35681 2.73154,10.42474 6.96179,14.37023 8.01569,7.47614 15.83066,15.16712 23.79523,22.6988 3.50967,3.31897 6.95178,6.79144 10.87189,9.56121 2.09494,1.48011 5.14068,2.26154 7.75796,2.26313 168.15878,0.1026 336.3176,0.1084 504.47629,-0.0274 3.19946,-0.003 6.39746,-1.79803 9.88226,-2.99963 z"
     id="path3" /><path
     fill="#2a2937"
     opacity="1"
     stroke="none"
     d="m 684.35311,401.39729 c -27.32764,0 -54.15772,-0.18665 -80.98078,0.16369 -5.12213,0.0668 -8.14441,-1.73553 -10.8374,-5.55023 -14.48462,-20.5177 -28.51477,-41.3887 -43.8067,-61.28879 -6.6557,-8.66125 -16.51123,-13.84006 -28.26813,-14.41662 -14.23291,-0.69797 -26.15857,3.71829 -35.1416,14.78051 -5.61432,6.91385 -10.52264,14.40293 -15.7132,21.65857 -9.89978,13.83835 -19.70202,27.74784 -29.76733,41.46439 -1.06226,1.44757 -3.58398,1.87164 -5.48254,2.63678 -0.87091,0.35101 -1.87238,0.52948 -2.81476,0.52984 -60.15045,0.0241 -120.30094,0.0217 -180.85465,0.0217 -0.11474,-1.32049 -0.34231,-2.57782 -0.3146,-3.8294 0.30438,-13.75476 -0.0428,-27.56775 1.1293,-41.25 2.27472,-26.55301 7.74973,-52.5567 17.20084,-77.52222 8.37188,-22.11472 19.59482,-42.80688 34.27731,-61.42337 9.44394,-11.9743 20.85376,-21.96372 33.47009,-30.53348 15.51297,-10.53732 32.54435,-17.51227 50.86533,-21.36667 1.43832,-0.30261 2.99087,-0.0732 4.49033,-0.0732 81.98263,-0.002 163.96548,0.10245 245.94754,-0.11038 12.71704,-0.033 24.38409,3.37714 35.77606,8.19055 20.65265,8.72638 38.18316,22.02634 52.94812,38.70804 15.58825,17.61206 26.95221,37.91153 35.93695,59.6402 7.94067,19.20385 12.77221,39.26089 16.73157,59.51184 1.96936,10.07254 2.50146,20.4675 3.12622,30.75049 0.6925,11.39923 0.62542,22.84283 1.14923,34.25512 0.18219,3.96735 -1.09778,5.15363 -5.08844,5.13459 -31.15906,-0.1482 -62.31903,-0.082 -93.97876,-0.082 z"
     id="path4" /><path
     fill="#2a2937"
     opacity="1"
     stroke="none"
     d="m 818.08718,362.83112 c -1.05493,-7.7164 -1.59601,-15.0636 -2.79688,-22.30127 -1.95971,-11.81115 -4.01867,-23.62487 -6.62842,-35.30508 -5.12518,-22.93826 -13.88861,-44.60355 -24.61474,-65.42899 -10.13507,-19.67788 -23.54285,-37.12796 -39.94617,-51.89746 -13.6637,-12.30267 -29.21405,-21.92425 -47.60724,-25.91113 -1.86364,-0.40396 -3.75927,-0.66031 -5.60742,-1.5899 1.75122,0 3.50238,0 5.25354,0 29.98468,0 59.96948,-0.0482 89.95398,0.0228 12.68365,0.03 24.62518,3.54544 36.19031,8.43692 19.72265,8.34168 36.74139,20.72629 50.56909,36.87198 9.12952,10.65997 17.57501,22.21268 24.43665,34.42743 7.93798,14.13077 14.83557,29.05926 20.26159,44.32501 4.94043,13.89975 7.60169,28.65076 10.73706,43.14133 4.75818,21.99066 5.37622,44.35177 5.10681,66.76382 -0.0524,4.35389 -1.58471,6.99829 -6.20959,7.00043 -35.64844,0.0165 -71.29694,0.007 -106.94537,-0.006 -0.46778,-1.8e-4 -0.93561,-0.14697 -1.93555,-0.31445 0,-12.6095 0,-25.21326 -0.21765,-38.23548 z"
     id="path5" /><path
     fill="#2a2937"
     opacity="1"
     stroke="none"
     d="m 315.35311,160.39729 c 9.48724,0 18.47452,0 27.46176,0 -16.15207,3.61474 -30.52878,10.53759 -43.72803,20.53219 -13.95331,10.56564 -25.62289,23.09766 -35.71301,37.26041 -14.55411,20.42846 -24.93097,43.03354 -32.52637,66.71222 -5.10763,15.92294 -8.12015,32.5628 -11.36416,49.02102 -1.79413,9.10239 -2.65336,18.47171 -3.00525,27.75589 -0.49433,13.04059 -0.12494,26.1139 -0.12494,39.71827 -2.88678,0 -4.49097,0 -6.09516,0 -33.65927,0 -67.31852,0.002 -100.97779,-0.002 -7.23317,-7.3e-4 -9.13619,-1.71783 -8.88115,-9.00696 0.51374,-14.68237 0.57832,-29.43109 2.12513,-44.01483 2.30558,-21.73755 6.62361,-43.16037 13.78951,-63.91006 9.04086,-26.17884 21.39775,-50.65629 38.86349,-72.20868 13.38697,-16.51926 29.36176,-30.34974 48.56745,-39.80649 15.39981,-7.5828 31.57022,-12.4708 49.12408,-12.14206 20.65479,0.38675 41.32239,0.0906 62.48444,0.0906 z"
     id="path6" /><path
     fill="#2a2937"
     opacity="1"
     stroke="none"
     d="m 319.35311,506.39729 c -61.80948,0 -123.11927,-0.0776 -184.42795,0.143 -5.06795,0.0182 -9.10092,-1.43683 -12.37695,-4.63818 -6.85903,-6.70264 -13.45214,-13.69342 -19.85219,-20.83673 -1.35126,-1.50812 -1.97522,-4.18061 -1.96597,-6.31238 0.0632,-14.58051 0.64863,-29.16309 0.47093,-43.73773 -0.0573,-4.7016 2.08348,-6.01111 5.8038,-6.57959 1.14014,-0.17432 2.32828,-0.0379 3.49445,-0.0379 101.96035,-5.5e-4 203.92068,-4.8e-4 305.88104,-4.8e-4 1.61267,0 3.22534,0 3.90137,0 -0.31946,10.66601 -0.80011,20.83221 -0.88874,31.00183 -0.14642,16.80212 -0.0398,33.6065 -0.0398,50.99817 -33.33115,0 -66.41556,0 -100,0 z"
     id="path7" /><path
     fill="#2a2937"
     opacity="1"
     stroke="none"
     d="m 664.35311,506.39729 c -16.47364,0 -32.44733,0 -48.74921,0 -0.0923,-1.6742 -0.2395,-3.11243 -0.2406,-4.55072 -0.0152,-19.66449 0.14618,-39.33094 -0.10492,-58.99219 -0.0759,-5.94263 -1.28137,-11.87085 -2.01678,-18.21387 0.6137,-0.0442 1.99737,-0.23065 3.3811,-0.23083 103.15503,-0.0135 206.31012,-0.0136 309.46515,-0.009 5.0415,2.4e-4 7.2124,1.99555 7.23889,7.04187 0.0754,14.33136 0.30237,28.67255 -0.17761,42.98816 -0.11279,3.36359 -2.10645,7.23407 -4.40369,9.84161 -5.60632,6.36341 -11.99866,12.02698 -17.86749,18.17005 -2.69953,2.82562 -5.59607,4.02752 -9.55121,4.02289 -78.82452,-0.0916 -157.64905,-0.0684 -236.97363,-0.0684 z"
     id="path8" /><path
     fill="#2a2937"
     opacity="1"
     stroke="none"
     d="m 432.36605,432.84345 c 6.96838,-10.56164 13.83905,-20.76416 20.906,-30.82898 8.26123,-11.76574 16.71393,-23.39679 25.0445,-35.11407 5.42254,-7.62708 10.5874,-15.44522 16.21344,-22.91742 5.35034,-7.10617 18.32397,-13.51679 31.82379,-9.2515 6.05365,1.91263 10.57898,5.41816 14.08301,10.33127 10.09375,14.15253 19.81073,28.57654 30.03967,42.62909 7.22131,9.92072 15.30804,19.21246 22.50458,29.14996 6.48315,8.9524 11.27057,18.60584 10.4685,30.34876 -0.77783,11.38934 -1.03442,22.83295 -1.02581,34.25238 0.0101,13.3988 0.70703,26.79602 0.80871,40.19617 0.063,8.30914 -2.33642,15.68011 -7.80402,22.43939 -8.97711,11.09802 -17.10052,22.88501 -25.6311,34.34637 -6.06335,8.14655 -12.27191,16.18579 -18.28692,24.3675 -3.94281,5.36309 -7.46796,11.03955 -11.52277,16.31225 -4.48181,5.82794 -10.71338,8.84815 -17.88556,10.34656 -7.55646,1.57873 -14.31659,-0.72168 -20.8891,-3.79932 -2.17694,-1.01947 -4.2309,-2.85174 -5.66778,-4.80713 -6.53064,-8.88702 -12.76362,-17.99206 -19.21485,-26.93847 -5.91656,-8.20484 -11.96741,-16.31281 -17.97552,-24.45142 -2.508,-3.39746 -5.03278,-6.78314 -7.59522,-10.13959 -4.42126,-5.79095 -8.73138,-11.67578 -13.36365,-17.294 -4.13726,-5.01776 -5.95312,-10.8133 -5.98352,-17.05976 -0.13629,-27.98925 -0.0854,-55.97955 -0.0157,-83.96929 0.006,-2.57703 0.62439,-5.15253 0.9693,-8.14875 m 80.18469,-91.15277 c -3.86841,2.20584 -8.77399,3.5643 -11.40344,6.78244 -6.84522,8.37766 -12.64044,17.60788 -18.94776,26.43143 -11.97412,16.75104 -23.95794,33.49573 -36.05475,50.15808 -4.38842,6.04474 -7.10589,12.17749 -6.97009,20.10297 0.46515,27.14227 0.10327,54.29791 0.28705,81.44696 0.0198,2.92614 0.85657,6.31726 2.49164,8.67694 5.73028,8.26983 11.99261,16.1701 18.02246,24.23358 13.12793,17.55542 26.61407,34.85974 39.22345,52.78052 8.62811,12.26251 27.55774,13.84649 35.48883,0.3988 2.13361,-3.61768 4.70428,-6.99377 7.24231,-10.35394 15.67035,-20.74579 31.46539,-41.39813 47.02277,-62.22803 2.91925,-3.90863 6.47698,-7.59607 6.45422,-13.21881 -0.11707,-28.982 0.005,-57.96503 -0.15057,-86.94672 -0.0149,-2.76355 -0.68995,-5.99762 -2.22614,-8.19818 -7.24182,-10.37408 -15.00604,-20.38159 -22.36731,-30.67474 -11.21075,-15.67584 -22.62817,-31.22644 -33.20099,-47.32718 -5.96332,-9.08127 -13.74005,-12.74585 -24.91168,-12.06412 z"
     id="path9" /><path
     class="st7"
     d="m 516.35176,563.99123 -61.7649,-39.16489 61.76358,80.69175 z"
     id="path8-3"
     style="fill:#22697d;stroke-width:4.6771" /><path
     class="st9"
     d="m 454.57161,524.80086 -0.84865,-84.29409 30.72501,18.43601 z"
     id="path10-2"
     style="fill:#379b8a;fill-opacity:1;stroke-width:4.6771" /><path
     class="st9"
     d="m 550.02755,458.19918 28.68527,-17.57167 0.0172,85.04313 z"
     id="path10"
     style="fill:#3aa6ae;stroke-width:4.6771" /><path
     class="st19"
     d="m 516.36627,563.9945 33.66146,-105.7659 28.69983,67.43654 z"
     id="path20"
     style="fill:#44b4b7;fill-opacity:1;stroke-width:4.6771" /><path
     class="st20"
     d="m 516.35524,564.03344 -32.02361,-105.09115 65.68858,-0.71354 z"
     id="path21"
     style="fill:#6dd0e0;fill-opacity:1;stroke-width:4.6771" /><path
     class="st0"
     d="m 516.47526,355.52557 33.54089,102.70675 -65.68728,0.70809 z"
     id="path1-6"
     style="fill:#20acd9;stroke-width:0.988182" /><path
     class="st0"
     d="M 516.39629,355.67952 484.33432,458.94096 453.7136,440.51283 Z"
     id="path1-1"
     style="fill:#2a8ece;fill-opacity:1;stroke-width:0.738075" /><path
     class="st2"
     d="m 516.47335,355.50301 33.52686,102.73046 28.73928,-17.61852 z"
     id="path3-9"
     style="fill:#259ad2;fill-opacity:1;stroke-width:0.711974" /><path
     class="st19"
     d="m 454.04878,524.29261 29.89368,-65.92619 31.89201,105.10748 z"
     id="path20-7"
     style="fill:#67c0b6;fill-opacity:1;stroke-width:4.6771" /><path
     class="st7"
     d="M 516.30633,563.9912 578.654,525.60159 516.30767,605.51806 Z"
     id="path2-4"
     style="fill:#3a9ab1;fill-opacity:1;stroke-width:4.6771" /></g>





































</svg>
